<svg width="284" height="40" viewBox="0 0 284 40" fill="none" xmlns="http://www.w3.org/2000/svg">
<path d="M46.5 1.5C44.706 2.57062 41.1065 4.02972 38.9905 4.45057C38.9284 4.46675 38.8778 4.48756 38.818 4.50375C36.9481 2.64924 34.3859 1.5 31.55 1.5C25.8345 1.5 21.2 6.1594 21.2 11.9056C21.2 12.2085 21.1747 12.7658 21.2 13.0618C13.4881 13.0618 7.6185 9.00128 3.4095 3.81236C2.9518 4.96853 2.7517 6.79529 2.7517 8.51106C2.7517 11.7507 5.2702 14.9325 9.1917 16.9049C8.4695 17.0922 7.6737 17.2263 6.8457 17.2263C5.5094 17.2263 4.0949 16.8725 2.8 15.7996C2.8 15.8389 2.8 15.8759 2.8 15.9175C2.8 20.4451 7.5794 23.5275 11.8298 24.3854C10.9673 24.8964 9.2285 24.9473 8.3798 24.9473C7.7818 24.9473 5.6658 24.6721 5.1 24.5657C6.2822 28.2771 10.5464 30.3628 14.6105 30.4368C11.4319 32.9434 9.2262 33.873 2.7172 33.873H0.5C4.6124 36.5229 9.8495 38.5 15.0981 38.5C32.1871 38.5 41.9 25.4051 41.9 13.0618C41.9 12.8629 41.8954 12.4467 41.8885 12.0282C41.8885 11.9865 41.9 11.9472 41.9 11.9056C41.9 11.8432 41.8816 11.783 41.8816 11.7206C41.8747 11.4061 41.8678 11.1125 41.8609 10.9598C43.6779 9.6418 45.2534 7.99772 46.5 6.12471C44.8325 6.86929 43.0431 7.36876 41.164 7.59537C43.0822 6.43919 45.8077 3.68286 46.5 1.5Z" fill="white"/>
<path d="M97.6111 0C91.4756 0 86.5 4.97556 86.5 11.1111V28.8889C86.5 35.0244 91.4756 40 97.6111 40H115.389C121.524 40 126.5 35.0244 126.5 28.8889V11.1111C126.5 4.97556 121.524 0 115.389 0H97.6111ZM119.833 4.44444C121.06 4.44444 122.056 5.44 122.056 6.66667C122.056 7.89333 121.06 8.88889 119.833 8.88889C118.607 8.88889 117.611 7.89333 117.611 6.66667C117.611 5.44 118.607 4.44444 119.833 4.44444ZM106.5 8.88889C112.636 8.88889 117.611 13.8644 117.611 20C117.611 26.1356 112.636 31.1111 106.5 31.1111C100.364 31.1111 95.3889 26.1356 95.3889 20C95.3889 13.8644 100.364 8.88889 106.5 8.88889ZM106.5 13.3333C104.732 13.3333 103.036 14.0357 101.786 15.286C100.536 16.5362 99.8333 18.2319 99.8333 20C99.8333 21.7681 100.536 23.4638 101.786 24.714C103.036 25.9643 104.732 26.6667 106.5 26.6667C108.268 26.6667 109.964 25.9643 111.214 24.714C112.464 23.4638 113.167 21.7681 113.167 20C113.167 18.2319 112.464 16.5362 111.214 15.286C109.964 14.0357 108.268 13.3333 106.5 13.3333Z" fill="white"/>
<path d="M206.1 2H170.9C168.48 2 166.522 4.025 166.522 6.5L166.5 33.5C166.5 35.975 168.48 38 170.9 38H206.1C208.52 38 210.5 35.975 210.5 33.5V6.5C210.5 4.025 208.52 2 206.1 2ZM206.1 11L188.5 22.25L170.9 11V6.5L188.5 17.75L206.1 6.5V11Z" fill="white"/>
<path d="M267 1.5C269.017 1.5 270.667 3.165 270.667 5.2C270.667 7.235 269.017 8.9 267 8.9C264.983 8.9 263.333 7.235 263.333 5.2C263.333 3.165 264.983 1.5 267 1.5ZM283.5 14.45H272.5V38.5H268.833V27.4H265.167V38.5H261.5V14.45H250.5V10.75H283.5V14.45Z" fill="white"/>
</svg>
