<svg width="298" height="300" viewBox="0 0 298 300" fill="none" xmlns="http://www.w3.org/2000/svg">
<path d="M0.5 150C0.5 67.9857 66.9857 0 149 0V0C231.014 0 297.5 67.9857 297.5 150V150C297.5 232.014 231.014 300 149 300V300C66.9857 300 0.5 232.014 0.5 150V150Z" fill="white"/>
<ellipse cx="148.5" cy="150" rx="108" ry="24" transform="rotate(0.147491 148.5 150)" fill="#A3A3A3"/>
<ellipse cx="148.5" cy="150" rx="108" ry="24" transform="rotate(0.147491 148.5 150)" fill="#A3A3A3"/>
<ellipse cx="148.5" cy="150" rx="108" ry="24" transform="rotate(0.147491 148.5 150)" fill="#A3A3A3"/>
<ellipse cx="148.5" cy="150" rx="108" ry="24" transform="rotate(24.9555 148.5 150)" fill="#A3A3A3"/>
<ellipse cx="148.5" cy="150" rx="108" ry="24" transform="rotate(24.9555 148.5 150)" fill="#A3A3A3"/>
<ellipse cx="148.5" cy="150" rx="108" ry="24" transform="rotate(24.9555 148.5 150)" fill="#A3A3A3"/>
<ellipse cx="148.5" cy="149.999" rx="108" ry="24" transform="rotate(151.421 148.5 149.999)" fill="#A3A3A3"/>
<ellipse cx="148.5" cy="149.999" rx="108" ry="24" transform="rotate(151.421 148.5 149.999)" fill="#A3A3A3"/>
<ellipse cx="148.5" cy="149.999" rx="108" ry="24" transform="rotate(151.421 148.5 149.999)" fill="#A3A3A3"/>
<ellipse cx="148.5" cy="149.999" rx="108" ry="24" transform="rotate(128.409 148.5 149.999)" fill="#A3A3A3"/>
<ellipse cx="148.5" cy="149.999" rx="108" ry="24" transform="rotate(128.409 148.5 149.999)" fill="#A3A3A3"/>
<ellipse cx="148.5" cy="149.999" rx="108" ry="24" transform="rotate(128.409 148.5 149.999)" fill="#A3A3A3"/>
<ellipse cx="148.5" cy="150" rx="108" ry="24" transform="rotate(112.16 148.5 150)" fill="#A3A3A3"/>
<ellipse cx="148.5" cy="150" rx="108" ry="24" transform="rotate(112.16 148.5 150)" fill="#A3A3A3"/>
<ellipse cx="148.5" cy="150" rx="108" ry="24" transform="rotate(112.16 148.5 150)" fill="#A3A3A3"/>
<ellipse cx="148.5" cy="150" rx="108" ry="24" transform="rotate(93.037 148.5 150)" fill="#A3A3A3"/>
<ellipse cx="148.5" cy="150" rx="108" ry="24" transform="rotate(93.037 148.5 150)" fill="#A3A3A3"/>
<ellipse cx="148.5" cy="150" rx="108" ry="24" transform="rotate(93.037 148.5 150)" fill="#A3A3A3"/>
<ellipse cx="148.5" cy="150" rx="108" ry="24" transform="rotate(71.5424 148.5 150)" fill="#A3A3A3"/>
<ellipse cx="148.5" cy="150" rx="108" ry="24" transform="rotate(71.5424 148.5 150)" fill="#A3A3A3"/>
<ellipse cx="148.5" cy="150" rx="108" ry="24" transform="rotate(71.5424 148.5 150)" fill="#A3A3A3"/>
<ellipse cx="148.5" cy="150" rx="108" ry="24" transform="rotate(51.4696 148.5 150)" fill="#A3A3A3"/>
<ellipse cx="148.5" cy="150" rx="108" ry="24" transform="rotate(51.4696 148.5 150)" fill="#A3A3A3"/>
<ellipse cx="148.5" cy="150" rx="108" ry="24" transform="rotate(51.4696 148.5 150)" fill="#A3A3A3"/>
<path d="M216 150C216 183.137 186.862 211.5 149 211.5C111.138 211.5 82 183.137 82 150C82 116.863 111.138 88.5 149 88.5C186.862 88.5 216 116.863 216 150Z" fill="#DEF0F0" stroke="#DEF0F0" stroke-width="25"/>
<path d="M93.5 71V228.5H184C195.046 228.5 204 219.546 204 208.5V91C204 79.9543 195.046 71 184 71H93.5Z" fill="#4C4181"/>
<path d="M98.5 75H110.5V229H98.5V75Z" fill="white"/>
<rect x="133.5" y="106" width="48" height="31" rx="6" fill="white"/>
<rect x="101.5" y="199" width="13" height="22" fill="#4C4181"/>
<path d="M117.42 216.22C116.833 216.22 116.293 216.107 115.8 215.88C115.307 215.64 114.867 215.293 114.48 214.84L115.28 213.84L115.42 213.68L115.52 213.76C115.533 213.88 115.56 213.987 115.6 214.08C115.653 214.173 115.767 214.293 115.94 214.44C116.167 214.613 116.393 214.747 116.62 214.84C116.86 214.933 117.127 214.98 117.42 214.98C117.873 214.98 118.24 214.88 118.52 214.68C118.8 214.48 119.007 214.153 119.14 213.7C119.273 213.233 119.34 212.613 119.34 211.84V204.72H116.94V203.54H122.64V204.72H120.72V211.82C120.747 212.62 120.673 213.3 120.5 213.86C120.327 214.42 120.08 214.88 119.76 215.24C119.44 215.587 119.08 215.84 118.68 216C118.28 216.147 117.86 216.22 117.42 216.22ZM128.5 216.16C127.673 216.16 126.94 215.96 126.3 215.56C125.673 215.147 125.18 214.587 124.82 213.88C124.46 213.16 124.28 212.34 124.28 211.42C124.28 210.487 124.46 209.667 124.82 208.96C125.18 208.24 125.673 207.68 126.3 207.28C126.94 206.867 127.673 206.66 128.5 206.66C129.327 206.66 130.053 206.867 130.68 207.28C131.32 207.68 131.82 208.24 132.18 208.96C132.54 209.667 132.72 210.487 132.72 211.42C132.72 212.34 132.54 213.16 132.18 213.88C131.82 214.587 131.32 215.147 130.68 215.56C130.053 215.96 129.327 216.16 128.5 216.16ZM128.5 214.96C129.033 214.96 129.5 214.807 129.9 214.5C130.3 214.193 130.613 213.773 130.84 213.24C131.08 212.707 131.2 212.093 131.2 211.4C131.2 210.707 131.08 210.093 130.84 209.56C130.613 209.027 130.3 208.613 129.9 208.32C129.5 208.013 129.033 207.86 128.5 207.86C127.98 207.86 127.513 208.013 127.1 208.32C126.7 208.613 126.38 209.027 126.14 209.56C125.913 210.093 125.8 210.707 125.8 211.4C125.8 212.093 125.913 212.707 126.14 213.24C126.38 213.773 126.7 214.193 127.1 214.5C127.513 214.807 127.98 214.96 128.5 214.96ZM137.92 216.22C137.56 216.22 137.22 216.167 136.9 216.06C136.58 215.953 136.287 215.793 136.02 215.58C135.767 215.353 135.547 215.073 135.36 214.74C135.173 214.407 135.027 214.007 134.92 213.54C134.827 213.073 134.78 212.547 134.78 211.96L134.8 206.86H136.2V211.96C136.2 212.533 136.253 213.02 136.36 213.42C136.467 213.82 136.613 214.14 136.8 214.38C137 214.62 137.227 214.793 137.48 214.9C137.733 215.007 138 215.06 138.28 215.06C138.6 215.06 138.907 215 139.2 214.88C139.493 214.747 139.753 214.553 139.98 214.3C140.22 214.047 140.407 213.72 140.54 213.32C140.673 212.92 140.74 212.447 140.74 211.9V206.86H142.14V214.58C142.14 214.82 142.147 215.06 142.16 215.3C142.187 215.527 142.247 215.76 142.34 216H140.96C140.893 215.84 140.847 215.687 140.82 215.54C140.793 215.38 140.773 215.22 140.76 215.06C140.76 214.9 140.76 214.747 140.76 214.6C140.613 214.853 140.44 215.08 140.24 215.28C140.04 215.48 139.813 215.653 139.56 215.8C139.32 215.933 139.06 216.033 138.78 216.1C138.513 216.18 138.227 216.22 137.92 216.22ZM145.88 206.86H147.38L147.32 209.52L147.14 209.22C147.22 208.807 147.36 208.44 147.56 208.12C147.76 207.8 148 207.533 148.28 207.32C148.56 207.093 148.867 206.927 149.2 206.82C149.533 206.7 149.88 206.64 150.24 206.64C150.72 206.64 151.16 206.727 151.56 206.9C151.973 207.06 152.34 207.307 152.66 207.64L152.02 208.76L151.94 208.94L151.8 208.86C151.773 208.753 151.733 208.653 151.68 208.56C151.627 208.467 151.513 208.353 151.34 208.22C151.127 208.087 150.927 208 150.74 207.96C150.567 207.907 150.367 207.88 150.14 207.88C149.807 207.88 149.473 207.947 149.14 208.08C148.807 208.2 148.5 208.393 148.22 208.66C147.953 208.927 147.74 209.267 147.58 209.68C147.42 210.093 147.34 210.587 147.34 211.16V216.02H145.88V206.86ZM154.94 216V206.86H156.34V208.48C156.58 208.107 156.86 207.787 157.18 207.52C157.5 207.24 157.853 207.027 158.24 206.88C158.627 206.72 159.027 206.64 159.44 206.64C159.947 206.64 160.4 206.767 160.8 207.02C161.2 207.273 161.52 207.68 161.76 208.24C162 208.8 162.12 209.54 162.12 210.46V216H160.72V210.5C160.72 209.86 160.647 209.353 160.5 208.98C160.353 208.593 160.153 208.32 159.9 208.16C159.647 207.987 159.36 207.9 159.04 207.9C158.733 207.9 158.42 207.967 158.1 208.1C157.793 208.233 157.507 208.427 157.24 208.68C156.973 208.92 156.753 209.213 156.58 209.56C156.42 209.907 156.34 210.3 156.34 210.74V216H154.94ZM168.26 216.22C167.94 216.22 167.667 216.107 167.44 215.88C167.213 215.653 167.1 215.387 167.1 215.08C167.1 214.773 167.213 214.507 167.44 214.28C167.667 214.053 167.94 213.94 168.26 213.94C168.567 213.94 168.833 214.053 169.06 214.28C169.287 214.507 169.4 214.773 169.4 215.08C169.4 215.387 169.287 215.653 169.06 215.88C168.833 216.107 168.567 216.22 168.26 216.22ZM180.64 212.36H176.12L176.4 211.28H180.32L180.64 212.36ZM178.48 206.52L175.2 216H173.82L178.42 203.32H178.58L183.18 216H181.74L178.48 206.52ZM185.12 216V214.82H187.58V204.72H185.26V203.54H191.44V204.72H188.98V214.84H191.56V216H185.12Z" fill="white"/>
<rect x="141.5" y="114" width="33" height="2" fill="#4C4181"/>
<rect x="141.5" y="121" width="33" height="2" fill="#4C4181"/>
<rect x="141.5" y="128" width="33" height="2" fill="#4C4181"/>
</svg>
